<svg xmlns="http://www.w3.org/2000/svg" xmlns:xlink="http://www.w3.org/1999/xlink" width="500" zoomAndPan="magnify" viewBox="0 0 375 374.999991" height="500" preserveAspectRatio="xMidYMid meet" version="1.0"><defs><clipPath id="612f557024"><path d="M 112.5 120 L 262.5 120 L 262.5 255 L 112.5 255 Z M 112.5 120 " clip-rule="nonzero"/></clipPath></defs><rect x="-37.5" width="450" fill="#ffffff" y="-37.499999" height="449.999989" fill-opacity="1"/><rect x="-37.5" width="450" fill="#ffffff" y="-37.499999" height="449.999989" fill-opacity="1"/><g clip-path="url(#612f557024)"><path fill="#ff3131" d="M 250.902344 189.53125 C 266.367188 173.597656 266.367188 147.726562 250.902344 131.949219 C 235.4375 116.015625 210.332031 116.015625 194.867188 131.949219 L 187.367188 139.835938 L 179.863281 132.109375 C 164.402344 116.015625 139.292969 116.015625 123.984375 131.949219 C 116.480469 139.679688 112.5 149.933594 112.5 160.820312 C 112.5 171.703125 116.632812 181.957031 123.984375 189.6875 L 187.367188 255 Z M 122.296875 160.820312 C 122.296875 152.617188 125.359375 145.042969 131.023438 139.363281 C 136.84375 133.371094 144.34375 130.371094 151.847656 130.371094 C 159.347656 130.371094 166.851562 133.371094 172.667969 139.363281 L 187.367188 154.351562 L 202.0625 139.207031 C 213.546875 127.375 232.378906 127.375 243.707031 139.207031 C 249.21875 144.886719 252.433594 152.457031 252.433594 160.660156 C 252.433594 168.863281 249.371094 176.4375 243.707031 182.117188 L 187.367188 240.328125 L 131.023438 182.273438 C 125.511719 176.4375 122.296875 168.863281 122.296875 160.820312 Z M 122.296875 160.820312 " fill-opacity="1" fill-rule="nonzero"/></g></svg>